<mxfile host="app.diagrams.net" modified="2023-03-19T16:23:21.243Z" agent="5.0 (Windows NT 10.0; Win64; x64) AppleWebKit/537.36 (KHTML, like Gecko) Chrome/111.0.0.0 Safari/537.36 Edg/111.0.1661.44" etag="0WNVpsDZGiVDS1VdTOlk" version="21.0.8" type="github">
  <diagram id="2ZfzH0S7zcMxqfZ5n5ro" name="Page-1">
    <mxGraphModel dx="2017" dy="1116" grid="1" gridSize="10" guides="1" tooltips="1" connect="1" arrows="1" fold="1" page="1" pageScale="1" pageWidth="1100" pageHeight="1100" math="0" shadow="0">
      <root>
        <mxCell id="0" />
        <mxCell id="1" parent="0" />
        <mxCell id="YbTaxgyRkn1RMPvg63sF-40" value="" style="rounded=0;whiteSpace=wrap;html=1;fillColor=none;" parent="1" vertex="1">
          <mxGeometry x="110" y="40" width="860" height="970" as="geometry" />
        </mxCell>
        <mxCell id="YbTaxgyRkn1RMPvg63sF-171" value="" style="edgeStyle=orthogonalEdgeStyle;rounded=0;orthogonalLoop=1;jettySize=auto;html=1;fontSize=20;endArrow=classic;endFill=1;" parent="1" source="YbTaxgyRkn1RMPvg63sF-170" target="YbTaxgyRkn1RMPvg63sF-2" edge="1">
          <mxGeometry relative="1" as="geometry" />
        </mxCell>
        <mxCell id="YbTaxgyRkn1RMPvg63sF-174" value="" style="edgeStyle=orthogonalEdgeStyle;rounded=0;orthogonalLoop=1;jettySize=auto;html=1;fontSize=20;endArrow=classic;endFill=1;" parent="1" source="YbTaxgyRkn1RMPvg63sF-173" target="YbTaxgyRkn1RMPvg63sF-2" edge="1">
          <mxGeometry relative="1" as="geometry" />
        </mxCell>
        <mxCell id="YbTaxgyRkn1RMPvg63sF-2" value="Local User" style="shape=umlActor;verticalLabelPosition=bottom;verticalAlign=top;html=1;outlineConnect=0;fillColor=none;" parent="1" vertex="1">
          <mxGeometry x="40" y="390" width="30" height="60" as="geometry" />
        </mxCell>
        <mxCell id="YbTaxgyRkn1RMPvg63sF-6" value="Reset Password" style="ellipse;whiteSpace=wrap;html=1;fillColor=none;" parent="1" vertex="1">
          <mxGeometry x="200" y="250" width="70" height="40" as="geometry" />
        </mxCell>
        <mxCell id="YbTaxgyRkn1RMPvg63sF-7" value="Login" style="ellipse;whiteSpace=wrap;html=1;fillColor=none;" parent="1" vertex="1">
          <mxGeometry x="230" y="200" width="70" height="40" as="geometry" />
        </mxCell>
        <mxCell id="YbTaxgyRkn1RMPvg63sF-8" value="Sign Up" style="ellipse;whiteSpace=wrap;html=1;fillColor=none;" parent="1" vertex="1">
          <mxGeometry x="170" y="170" width="70" height="40" as="geometry" />
        </mxCell>
        <mxCell id="YbTaxgyRkn1RMPvg63sF-9" value="Name, Email, Password, Age" style="ellipse;whiteSpace=wrap;html=1;fillColor=none;" parent="1" vertex="1">
          <mxGeometry x="600" y="200" width="100" height="65" as="geometry" />
        </mxCell>
        <mxCell id="YbTaxgyRkn1RMPvg63sF-10" value="Email, Password" style="ellipse;whiteSpace=wrap;html=1;fillColor=none;" parent="1" vertex="1">
          <mxGeometry x="440" y="230" width="110" height="60" as="geometry" />
        </mxCell>
        <object label="&amp;lt;&amp;lt;include&amp;gt;&amp;gt;" id="YbTaxgyRkn1RMPvg63sF-28">
          <mxCell style="endArrow=classic;html=1;rounded=0;exitX=1;exitY=0.5;exitDx=0;exitDy=0;entryX=0;entryY=0.5;entryDx=0;entryDy=0;fontStyle=1" parent="1" source="YbTaxgyRkn1RMPvg63sF-8" target="YbTaxgyRkn1RMPvg63sF-9" edge="1">
            <mxGeometry width="50" height="50" relative="1" as="geometry">
              <mxPoint x="340" y="340" as="sourcePoint" />
              <mxPoint x="390" y="290" as="targetPoint" />
            </mxGeometry>
          </mxCell>
        </object>
        <mxCell id="YbTaxgyRkn1RMPvg63sF-37" value="&amp;lt;&amp;lt;include&amp;gt;&amp;gt;" style="endArrow=classic;html=1;rounded=0;exitX=1;exitY=0.5;exitDx=0;exitDy=0;fontStyle=1;entryX=0;entryY=0.333;entryDx=0;entryDy=0;entryPerimeter=0;" parent="1" source="YbTaxgyRkn1RMPvg63sF-7" target="YbTaxgyRkn1RMPvg63sF-10" edge="1">
          <mxGeometry width="50" height="50" relative="1" as="geometry">
            <mxPoint x="260" y="280" as="sourcePoint" />
            <mxPoint x="430" y="330" as="targetPoint" />
          </mxGeometry>
        </mxCell>
        <mxCell id="YbTaxgyRkn1RMPvg63sF-38" value="&amp;lt;&amp;lt;include&amp;gt;&amp;gt;" style="endArrow=classic;html=1;rounded=0;exitX=1;exitY=0.5;exitDx=0;exitDy=0;entryX=0;entryY=0;entryDx=0;entryDy=0;fontStyle=1" parent="1" source="YbTaxgyRkn1RMPvg63sF-6" target="YbTaxgyRkn1RMPvg63sF-58" edge="1">
          <mxGeometry width="50" height="50" relative="1" as="geometry">
            <mxPoint x="270" y="290" as="sourcePoint" />
            <mxPoint x="470" y="364" as="targetPoint" />
          </mxGeometry>
        </mxCell>
        <mxCell id="YbTaxgyRkn1RMPvg63sF-41" value="Explicit Preference" style="ellipse;whiteSpace=wrap;html=1;fillColor=none;" parent="1" vertex="1">
          <mxGeometry x="420" y="130" width="120" height="40" as="geometry" />
        </mxCell>
        <object label="&amp;lt;&amp;lt;include&amp;gt;&amp;gt;" id="YbTaxgyRkn1RMPvg63sF-42">
          <mxCell style="endArrow=classic;html=1;rounded=0;exitX=1;exitY=0;exitDx=0;exitDy=0;entryX=-0.002;entryY=0.644;entryDx=0;entryDy=0;fontStyle=1;entryPerimeter=0;" parent="1" source="YbTaxgyRkn1RMPvg63sF-8" target="YbTaxgyRkn1RMPvg63sF-41" edge="1">
            <mxGeometry width="50" height="50" relative="1" as="geometry">
              <mxPoint x="260.00000000000364" y="279.9999999999998" as="sourcePoint" />
              <mxPoint x="469.99999999999886" y="279.9999999999998" as="targetPoint" />
            </mxGeometry>
          </mxCell>
        </object>
        <mxCell id="YbTaxgyRkn1RMPvg63sF-43" value="Set favorite genre" style="ellipse;whiteSpace=wrap;html=1;fillColor=none;" parent="1" vertex="1">
          <mxGeometry x="265" y="280" width="70" height="40" as="geometry" />
        </mxCell>
        <mxCell id="YbTaxgyRkn1RMPvg63sF-46" value="" style="endArrow=none;html=1;rounded=0;entryX=0;entryY=0.5;entryDx=0;entryDy=0;" parent="1" source="YbTaxgyRkn1RMPvg63sF-2" target="YbTaxgyRkn1RMPvg63sF-43" edge="1">
          <mxGeometry width="50" height="50" relative="1" as="geometry">
            <mxPoint x="380" y="660" as="sourcePoint" />
            <mxPoint x="430" y="610" as="targetPoint" />
          </mxGeometry>
        </mxCell>
        <mxCell id="YbTaxgyRkn1RMPvg63sF-47" value="" style="endArrow=none;html=1;rounded=0;entryX=0;entryY=0.5;entryDx=0;entryDy=0;" parent="1" source="YbTaxgyRkn1RMPvg63sF-2" target="YbTaxgyRkn1RMPvg63sF-6" edge="1">
          <mxGeometry width="50" height="50" relative="1" as="geometry">
            <mxPoint x="110" y="348.94736842105317" as="sourcePoint" />
            <mxPoint x="189.99999999999636" y="449.9999999999998" as="targetPoint" />
          </mxGeometry>
        </mxCell>
        <mxCell id="YbTaxgyRkn1RMPvg63sF-48" value="" style="endArrow=none;html=1;rounded=0;entryX=0;entryY=0.5;entryDx=0;entryDy=0;" parent="1" source="YbTaxgyRkn1RMPvg63sF-2" target="YbTaxgyRkn1RMPvg63sF-8" edge="1">
          <mxGeometry width="50" height="50" relative="1" as="geometry">
            <mxPoint x="120" y="358.94736842105317" as="sourcePoint" />
            <mxPoint x="199.99999999999636" y="459.9999999999998" as="targetPoint" />
          </mxGeometry>
        </mxCell>
        <mxCell id="YbTaxgyRkn1RMPvg63sF-49" value="" style="endArrow=none;html=1;rounded=0;entryX=0;entryY=0.5;entryDx=0;entryDy=0;" parent="1" source="YbTaxgyRkn1RMPvg63sF-2" target="YbTaxgyRkn1RMPvg63sF-7" edge="1">
          <mxGeometry width="50" height="50" relative="1" as="geometry">
            <mxPoint x="130" y="368.94736842105317" as="sourcePoint" />
            <mxPoint x="209.99999999999636" y="469.9999999999998" as="targetPoint" />
          </mxGeometry>
        </mxCell>
        <mxCell id="YbTaxgyRkn1RMPvg63sF-50" value="View saved playlists" style="ellipse;whiteSpace=wrap;html=1;fillColor=none;" parent="1" vertex="1">
          <mxGeometry x="395" y="515" width="70" height="40" as="geometry" />
        </mxCell>
        <mxCell id="YbTaxgyRkn1RMPvg63sF-51" value="View competition records" style="ellipse;whiteSpace=wrap;html=1;fillColor=none;" parent="1" vertex="1">
          <mxGeometry x="190" y="600" width="120" height="50" as="geometry" />
        </mxCell>
        <mxCell id="YbTaxgyRkn1RMPvg63sF-52" value="" style="endArrow=none;html=1;rounded=0;entryX=0;entryY=0.5;entryDx=0;entryDy=0;" parent="1" source="YbTaxgyRkn1RMPvg63sF-2" target="YbTaxgyRkn1RMPvg63sF-50" edge="1">
          <mxGeometry width="50" height="50" relative="1" as="geometry">
            <mxPoint x="110" y="337.4999999999998" as="sourcePoint" />
            <mxPoint x="255" y="409.9999999999998" as="targetPoint" />
          </mxGeometry>
        </mxCell>
        <mxCell id="YbTaxgyRkn1RMPvg63sF-53" value="" style="endArrow=none;html=1;rounded=0;entryX=0;entryY=0;entryDx=0;entryDy=0;" parent="1" source="YbTaxgyRkn1RMPvg63sF-2" target="YbTaxgyRkn1RMPvg63sF-51" edge="1">
          <mxGeometry width="50" height="50" relative="1" as="geometry">
            <mxPoint x="120" y="347.4999999999998" as="sourcePoint" />
            <mxPoint x="265" y="419.9999999999998" as="targetPoint" />
          </mxGeometry>
        </mxCell>
        <mxCell id="YbTaxgyRkn1RMPvg63sF-54" value="Create playlist" style="ellipse;whiteSpace=wrap;html=1;fillColor=none;" parent="1" vertex="1">
          <mxGeometry x="385" y="460" width="70" height="40" as="geometry" />
        </mxCell>
        <mxCell id="YbTaxgyRkn1RMPvg63sF-55" value="" style="endArrow=none;html=1;rounded=0;entryX=0;entryY=0;entryDx=0;entryDy=0;" parent="1" source="YbTaxgyRkn1RMPvg63sF-2" target="YbTaxgyRkn1RMPvg63sF-54" edge="1">
          <mxGeometry width="50" height="50" relative="1" as="geometry">
            <mxPoint x="380" y="660" as="sourcePoint" />
            <mxPoint x="430" y="610" as="targetPoint" />
          </mxGeometry>
        </mxCell>
        <mxCell id="YbTaxgyRkn1RMPvg63sF-56" value="Create competetion" style="ellipse;whiteSpace=wrap;html=1;fillColor=none;" parent="1" vertex="1">
          <mxGeometry x="215" y="540" width="90" height="40" as="geometry" />
        </mxCell>
        <mxCell id="YbTaxgyRkn1RMPvg63sF-57" value="" style="endArrow=none;html=1;rounded=0;entryX=0;entryY=0.5;entryDx=0;entryDy=0;" parent="1" source="YbTaxgyRkn1RMPvg63sF-2" target="YbTaxgyRkn1RMPvg63sF-56" edge="1">
          <mxGeometry width="50" height="50" relative="1" as="geometry">
            <mxPoint x="109.08163265306143" y="359.9999999999998" as="sourcePoint" />
            <mxPoint x="210.0000000000025" y="574.9999999999998" as="targetPoint" />
          </mxGeometry>
        </mxCell>
        <mxCell id="YbTaxgyRkn1RMPvg63sF-58" value="Email" style="ellipse;whiteSpace=wrap;html=1;fillColor=none;" parent="1" vertex="1">
          <mxGeometry x="550" y="320" width="60" height="40" as="geometry" />
        </mxCell>
        <mxCell id="YbTaxgyRkn1RMPvg63sF-59" value="OTP Verification" style="ellipse;whiteSpace=wrap;html=1;fillColor=none;" parent="1" vertex="1">
          <mxGeometry x="535" y="160" width="70" height="50" as="geometry" />
        </mxCell>
        <object label="&amp;lt;&amp;lt;include&amp;gt;&amp;gt;" id="YbTaxgyRkn1RMPvg63sF-60">
          <mxCell style="endArrow=classic;html=1;rounded=0;exitX=1;exitY=0.5;exitDx=0;exitDy=0;entryX=0;entryY=0.5;entryDx=0;entryDy=0;fontStyle=1" parent="1" source="YbTaxgyRkn1RMPvg63sF-8" target="YbTaxgyRkn1RMPvg63sF-59" edge="1">
            <mxGeometry width="50" height="50" relative="1" as="geometry">
              <mxPoint x="210" y="249.99999999999977" as="sourcePoint" />
              <mxPoint x="360.00000000000136" y="297.4999999999998" as="targetPoint" />
            </mxGeometry>
          </mxCell>
        </object>
        <mxCell id="YbTaxgyRkn1RMPvg63sF-62" value="Email Verification&lt;br&gt;Service" style="shape=umlActor;verticalLabelPosition=bottom;verticalAlign=top;html=1;outlineConnect=0;fillColor=none;" parent="1" vertex="1">
          <mxGeometry x="1030" y="160" width="30" height="60" as="geometry" />
        </mxCell>
        <object label="&amp;lt;&amp;lt;include&amp;gt;&amp;gt;" id="YbTaxgyRkn1RMPvg63sF-65">
          <mxCell style="endArrow=classic;html=1;rounded=0;entryX=1;entryY=0.5;entryDx=0;entryDy=0;fontStyle=1" parent="1" source="YbTaxgyRkn1RMPvg63sF-62" target="YbTaxgyRkn1RMPvg63sF-59" edge="1">
            <mxGeometry width="50" height="50" relative="1" as="geometry">
              <mxPoint x="510" y="134.99999999999977" as="sourcePoint" />
              <mxPoint x="660.0000000000014" y="182.49999999999977" as="targetPoint" />
            </mxGeometry>
          </mxCell>
        </object>
        <mxCell id="YbTaxgyRkn1RMPvg63sF-70" value="Remote User" style="shape=umlActor;verticalLabelPosition=bottom;verticalAlign=top;html=1;outlineConnect=0;fillColor=none;" parent="1" vertex="1">
          <mxGeometry x="40" y="840" width="30" height="60" as="geometry" />
        </mxCell>
        <mxCell id="YbTaxgyRkn1RMPvg63sF-71" value="random" style="ellipse;whiteSpace=wrap;html=1;fillColor=none;" parent="1" vertex="1">
          <mxGeometry x="550" y="440" width="70" height="30" as="geometry" />
        </mxCell>
        <mxCell id="YbTaxgyRkn1RMPvg63sF-73" value="No of songs" style="ellipse;whiteSpace=wrap;html=1;fillColor=none;" parent="1" vertex="1">
          <mxGeometry x="320" y="590" width="80" height="40" as="geometry" />
        </mxCell>
        <mxCell id="YbTaxgyRkn1RMPvg63sF-74" value="&amp;lt;&amp;lt;include&amp;gt;&amp;gt;" style="endArrow=classic;html=1;rounded=0;exitX=0.997;exitY=0.804;exitDx=0;exitDy=0;entryX=0.003;entryY=0.35;entryDx=0;entryDy=0;fontStyle=1;exitPerimeter=0;entryPerimeter=0;" parent="1" source="YbTaxgyRkn1RMPvg63sF-56" target="YbTaxgyRkn1RMPvg63sF-73" edge="1">
          <mxGeometry width="50" height="50" relative="1" as="geometry">
            <mxPoint x="274.7108053547315" y="540.0015065872565" as="sourcePoint" />
            <mxPoint x="375.28" y="565.6799999999998" as="targetPoint" />
          </mxGeometry>
        </mxCell>
        <mxCell id="YbTaxgyRkn1RMPvg63sF-75" value="Filter playlist" style="ellipse;whiteSpace=wrap;html=1;fillColor=none;" parent="1" vertex="1">
          <mxGeometry x="520" y="555" width="80" height="40" as="geometry" />
        </mxCell>
        <mxCell id="YbTaxgyRkn1RMPvg63sF-76" value="&amp;lt;&amp;lt;extend&amp;gt;&amp;gt;" style="endArrow=classic;html=1;rounded=0;exitX=0;exitY=0.5;exitDx=0;exitDy=0;entryX=1;entryY=0.5;entryDx=0;entryDy=0;fontStyle=1" parent="1" source="YbTaxgyRkn1RMPvg63sF-75" target="YbTaxgyRkn1RMPvg63sF-50" edge="1">
          <mxGeometry width="50" height="50" relative="1" as="geometry">
            <mxPoint x="390.00080535473154" y="444.3215065872564" as="sourcePoint" />
            <mxPoint x="490.57" y="469.9999999999998" as="targetPoint" />
          </mxGeometry>
        </mxCell>
        <mxCell id="YbTaxgyRkn1RMPvg63sF-77" value="Send challenge" style="ellipse;whiteSpace=wrap;html=1;fillColor=none;" parent="1" vertex="1">
          <mxGeometry x="150" y="800" width="80" height="50" as="geometry" />
        </mxCell>
        <mxCell id="YbTaxgyRkn1RMPvg63sF-78" value="Receive challenge" style="ellipse;whiteSpace=wrap;html=1;fillColor=none;" parent="1" vertex="1">
          <mxGeometry x="240" y="840" width="80" height="50" as="geometry" />
        </mxCell>
        <mxCell id="YbTaxgyRkn1RMPvg63sF-79" value="Receive challenge" style="ellipse;whiteSpace=wrap;html=1;fillColor=none;" parent="1" vertex="1">
          <mxGeometry x="120" y="680" width="80" height="50" as="geometry" />
        </mxCell>
        <mxCell id="YbTaxgyRkn1RMPvg63sF-80" value="Send challenge" style="ellipse;whiteSpace=wrap;html=1;fillColor=none;" parent="1" vertex="1">
          <mxGeometry x="207.5" y="720" width="80" height="50" as="geometry" />
        </mxCell>
        <mxCell id="YbTaxgyRkn1RMPvg63sF-82" value="" style="endArrow=none;html=1;rounded=0;entryX=0;entryY=0;entryDx=0;entryDy=0;" parent="1" source="YbTaxgyRkn1RMPvg63sF-2" target="YbTaxgyRkn1RMPvg63sF-80" edge="1">
          <mxGeometry width="50" height="50" relative="1" as="geometry">
            <mxPoint x="40" y="429.9966666666667" as="sourcePoint" />
            <mxPoint x="205" y="640.83" as="targetPoint" />
          </mxGeometry>
        </mxCell>
        <mxCell id="YbTaxgyRkn1RMPvg63sF-83" value="" style="endArrow=none;html=1;rounded=0;" parent="1" source="YbTaxgyRkn1RMPvg63sF-2" target="YbTaxgyRkn1RMPvg63sF-79" edge="1">
          <mxGeometry width="50" height="50" relative="1" as="geometry">
            <mxPoint x="90" y="399.16666666666674" as="sourcePoint" />
            <mxPoint x="255" y="610" as="targetPoint" />
          </mxGeometry>
        </mxCell>
        <mxCell id="YbTaxgyRkn1RMPvg63sF-84" value="" style="endArrow=none;html=1;rounded=0;entryX=0;entryY=0.5;entryDx=0;entryDy=0;" parent="1" source="YbTaxgyRkn1RMPvg63sF-70" target="YbTaxgyRkn1RMPvg63sF-78" edge="1">
          <mxGeometry width="50" height="50" relative="1" as="geometry">
            <mxPoint x="100" y="289.16666666666674" as="sourcePoint" />
            <mxPoint x="265" y="500" as="targetPoint" />
          </mxGeometry>
        </mxCell>
        <mxCell id="YbTaxgyRkn1RMPvg63sF-85" value="" style="endArrow=none;html=1;rounded=0;entryX=0;entryY=0.5;entryDx=0;entryDy=0;" parent="1" source="YbTaxgyRkn1RMPvg63sF-70" target="YbTaxgyRkn1RMPvg63sF-77" edge="1">
          <mxGeometry width="50" height="50" relative="1" as="geometry">
            <mxPoint x="80" y="669.318181818182" as="sourcePoint" />
            <mxPoint x="175" y="665" as="targetPoint" />
          </mxGeometry>
        </mxCell>
        <mxCell id="YbTaxgyRkn1RMPvg63sF-88" value="Firebase" style="shape=umlActor;verticalLabelPosition=bottom;verticalAlign=top;html=1;outlineConnect=0;fillColor=none;" parent="1" vertex="1">
          <mxGeometry x="1030" y="630" width="30" height="60" as="geometry" />
        </mxCell>
        <mxCell id="YbTaxgyRkn1RMPvg63sF-91" value="calculate Score" style="ellipse;whiteSpace=wrap;html=1;fillColor=none;" parent="1" vertex="1">
          <mxGeometry x="207.5" y="660" width="80" height="50" as="geometry" />
        </mxCell>
        <mxCell id="YbTaxgyRkn1RMPvg63sF-93" value="" style="endArrow=none;html=1;rounded=0;exitX=0.041;exitY=0.255;exitDx=0;exitDy=0;exitPerimeter=0;" parent="1" source="YbTaxgyRkn1RMPvg63sF-91" target="YbTaxgyRkn1RMPvg63sF-2" edge="1">
          <mxGeometry width="50" height="50" relative="1" as="geometry">
            <mxPoint x="390" y="710" as="sourcePoint" />
            <mxPoint x="440" y="660" as="targetPoint" />
          </mxGeometry>
        </mxCell>
        <mxCell id="YbTaxgyRkn1RMPvg63sF-94" value="Exchange challenge Score" style="ellipse;whiteSpace=wrap;html=1;fillColor=none;" parent="1" vertex="1">
          <mxGeometry x="235" y="910" width="80" height="50" as="geometry" />
        </mxCell>
        <mxCell id="YbTaxgyRkn1RMPvg63sF-95" value="" style="endArrow=none;html=1;rounded=0;entryX=0;entryY=0;entryDx=0;entryDy=0;" parent="1" source="YbTaxgyRkn1RMPvg63sF-70" target="YbTaxgyRkn1RMPvg63sF-94" edge="1">
          <mxGeometry width="50" height="50" relative="1" as="geometry">
            <mxPoint x="80" y="679.6666666666665" as="sourcePoint" />
            <mxPoint x="289.9999999999998" y="815" as="targetPoint" />
          </mxGeometry>
        </mxCell>
        <mxCell id="YbTaxgyRkn1RMPvg63sF-96" value="Authenticate login" style="ellipse;whiteSpace=wrap;html=1;fillColor=none;" parent="1" vertex="1">
          <mxGeometry x="860" y="540" width="80" height="50" as="geometry" />
        </mxCell>
        <mxCell id="YbTaxgyRkn1RMPvg63sF-97" value="&amp;lt;&amp;lt;include&amp;gt;&amp;gt;" style="endArrow=classic;html=1;rounded=0;entryX=1;entryY=0.5;entryDx=0;entryDy=0;exitX=0.35;exitY=-0.051;exitDx=0;exitDy=0;exitPerimeter=0;fontStyle=1;endFill=1;" parent="1" source="YbTaxgyRkn1RMPvg63sF-96" target="YbTaxgyRkn1RMPvg63sF-10" edge="1">
          <mxGeometry width="50" height="50" relative="1" as="geometry">
            <mxPoint x="390" y="710" as="sourcePoint" />
            <mxPoint x="440" y="660" as="targetPoint" />
          </mxGeometry>
        </mxCell>
        <mxCell id="YbTaxgyRkn1RMPvg63sF-98" value="" style="endArrow=none;html=1;rounded=0;entryX=0.762;entryY=0.926;entryDx=0;entryDy=0;entryPerimeter=0;" parent="1" source="YbTaxgyRkn1RMPvg63sF-88" target="YbTaxgyRkn1RMPvg63sF-96" edge="1">
          <mxGeometry width="50" height="50" relative="1" as="geometry">
            <mxPoint x="390" y="590" as="sourcePoint" />
            <mxPoint x="440" y="540" as="targetPoint" />
          </mxGeometry>
        </mxCell>
        <mxCell id="YbTaxgyRkn1RMPvg63sF-99" value="Create User" style="ellipse;whiteSpace=wrap;html=1;fillColor=none;" parent="1" vertex="1">
          <mxGeometry x="870" y="460" width="80" height="50" as="geometry" />
        </mxCell>
        <mxCell id="YbTaxgyRkn1RMPvg63sF-100" value="" style="endArrow=none;html=1;rounded=0;entryX=1;entryY=1;entryDx=0;entryDy=0;" parent="1" source="YbTaxgyRkn1RMPvg63sF-88" target="YbTaxgyRkn1RMPvg63sF-99" edge="1">
          <mxGeometry width="50" height="50" relative="1" as="geometry">
            <mxPoint x="390" y="590" as="sourcePoint" />
            <mxPoint x="440" y="540" as="targetPoint" />
          </mxGeometry>
        </mxCell>
        <mxCell id="YbTaxgyRkn1RMPvg63sF-101" value="&amp;lt;&amp;lt;include&amp;gt;&amp;gt;" style="endArrow=classic;html=1;rounded=0;exitX=0.732;exitY=0.055;exitDx=0;exitDy=0;entryX=1;entryY=0.5;entryDx=0;entryDy=0;exitPerimeter=0;fontStyle=1" parent="1" source="YbTaxgyRkn1RMPvg63sF-99" target="YbTaxgyRkn1RMPvg63sF-9" edge="1">
          <mxGeometry width="50" height="50" relative="1" as="geometry">
            <mxPoint x="390" y="710" as="sourcePoint" />
            <mxPoint x="440" y="660" as="targetPoint" />
          </mxGeometry>
        </mxCell>
        <mxCell id="YbTaxgyRkn1RMPvg63sF-102" value="Send Reset Email" style="ellipse;whiteSpace=wrap;html=1;fillColor=none;" parent="1" vertex="1">
          <mxGeometry x="870" y="630" width="80" height="50" as="geometry" />
        </mxCell>
        <mxCell id="YbTaxgyRkn1RMPvg63sF-103" value="" style="endArrow=none;html=1;rounded=0;entryX=0.96;entryY=0.832;entryDx=0;entryDy=0;entryPerimeter=0;" parent="1" source="YbTaxgyRkn1RMPvg63sF-88" target="YbTaxgyRkn1RMPvg63sF-102" edge="1">
          <mxGeometry width="50" height="50" relative="1" as="geometry">
            <mxPoint x="390" y="590" as="sourcePoint" />
            <mxPoint x="440" y="540" as="targetPoint" />
          </mxGeometry>
        </mxCell>
        <mxCell id="YbTaxgyRkn1RMPvg63sF-104" value="&amp;lt;&amp;lt;include&amp;gt;&amp;gt;" style="endArrow=classic;html=1;rounded=0;entryX=0.967;entryY=0.325;entryDx=0;entryDy=0;exitX=0;exitY=0.5;exitDx=0;exitDy=0;fontStyle=1;endFill=1;entryPerimeter=0;" parent="1" source="YbTaxgyRkn1RMPvg63sF-102" target="YbTaxgyRkn1RMPvg63sF-58" edge="1">
          <mxGeometry width="50" height="50" relative="1" as="geometry">
            <mxPoint x="898" y="547.45" as="sourcePoint" />
            <mxPoint x="520" y="370" as="targetPoint" />
          </mxGeometry>
        </mxCell>
        <mxCell id="YbTaxgyRkn1RMPvg63sF-106" value="Save challenge Result" style="ellipse;whiteSpace=wrap;html=1;fillColor=none;" parent="1" vertex="1">
          <mxGeometry x="455" y="800" width="80" height="50" as="geometry" />
        </mxCell>
        <mxCell id="YbTaxgyRkn1RMPvg63sF-113" value="&amp;lt;&amp;lt;include&amp;gt;&amp;gt;" style="endArrow=classic;html=1;rounded=0;exitX=0.95;exitY=0.8;exitDx=0;exitDy=0;entryX=0.038;entryY=0.32;entryDx=0;entryDy=0;fontStyle=1;exitPerimeter=0;entryPerimeter=0;" parent="1" source="YbTaxgyRkn1RMPvg63sF-91" target="YbTaxgyRkn1RMPvg63sF-106" edge="1">
          <mxGeometry width="50" height="50" relative="1" as="geometry">
            <mxPoint x="290" y="741.1600000000001" as="sourcePoint" />
            <mxPoint x="470.6600000000001" y="880" as="targetPoint" />
          </mxGeometry>
        </mxCell>
        <mxCell id="YbTaxgyRkn1RMPvg63sF-116" value="&amp;lt;&amp;lt;include&amp;gt;&amp;gt;" style="endArrow=classic;html=1;rounded=0;exitX=0.988;exitY=0.3;exitDx=0;exitDy=0;entryX=0.5;entryY=1;entryDx=0;entryDy=0;fontStyle=1;exitPerimeter=0;" parent="1" source="YbTaxgyRkn1RMPvg63sF-94" target="YbTaxgyRkn1RMPvg63sF-106" edge="1">
          <mxGeometry width="50" height="50" relative="1" as="geometry">
            <mxPoint x="427.96" y="777" as="sourcePoint" />
            <mxPoint x="459.99999999999994" y="813" as="targetPoint" />
          </mxGeometry>
        </mxCell>
        <mxCell id="YbTaxgyRkn1RMPvg63sF-117" value="&amp;lt;&amp;lt;extend&amp;gt;&amp;gt;" style="endArrow=classic;html=1;rounded=0;exitX=0.5;exitY=0;exitDx=0;exitDy=0;entryX=0.5;entryY=1;entryDx=0;entryDy=0;fontStyle=1" parent="1" source="YbTaxgyRkn1RMPvg63sF-78" target="YbTaxgyRkn1RMPvg63sF-80" edge="1">
          <mxGeometry width="50" height="50" relative="1" as="geometry">
            <mxPoint x="490" y="780" as="sourcePoint" />
            <mxPoint x="400" y="750" as="targetPoint" />
          </mxGeometry>
        </mxCell>
        <mxCell id="YbTaxgyRkn1RMPvg63sF-118" value="&amp;lt;&amp;lt;extend&amp;gt;&amp;gt;" style="endArrow=classic;html=1;rounded=0;exitX=0.5;exitY=0;exitDx=0;exitDy=0;entryX=0.5;entryY=1;entryDx=0;entryDy=0;fontStyle=1" parent="1" source="YbTaxgyRkn1RMPvg63sF-77" target="YbTaxgyRkn1RMPvg63sF-79" edge="1">
          <mxGeometry width="50" height="50" relative="1" as="geometry">
            <mxPoint x="310" y="620" as="sourcePoint" />
            <mxPoint x="325" y="680" as="targetPoint" />
          </mxGeometry>
        </mxCell>
        <mxCell id="YbTaxgyRkn1RMPvg63sF-119" value="Genre, Artist, Publish Date Selection" style="ellipse;whiteSpace=wrap;html=1;fillColor=none;" parent="1" vertex="1">
          <mxGeometry x="730" y="640" width="110" height="50" as="geometry" />
        </mxCell>
        <mxCell id="YbTaxgyRkn1RMPvg63sF-120" value="&amp;lt;&amp;lt;include&amp;gt;&amp;gt;" style="endArrow=classic;html=1;rounded=0;entryX=0.064;entryY=0.3;entryDx=0;entryDy=0;exitX=0.775;exitY=0.95;exitDx=0;exitDy=0;fontStyle=1;endFill=1;entryPerimeter=0;exitPerimeter=0;" parent="1" source="YbTaxgyRkn1RMPvg63sF-75" target="YbTaxgyRkn1RMPvg63sF-119" edge="1">
          <mxGeometry width="50" height="50" relative="1" as="geometry">
            <mxPoint x="880" y="665" as="sourcePoint" />
            <mxPoint x="548.02" y="443" as="targetPoint" />
          </mxGeometry>
        </mxCell>
        <mxCell id="YbTaxgyRkn1RMPvg63sF-123" value="Record Song" style="ellipse;whiteSpace=wrap;html=1;fillColor=none;" parent="1" vertex="1">
          <mxGeometry x="190" y="370" width="115" height="60" as="geometry" />
        </mxCell>
        <mxCell id="YbTaxgyRkn1RMPvg63sF-124" value="" style="endArrow=none;html=1;rounded=0;entryX=0;entryY=0.5;entryDx=0;entryDy=0;" parent="1" source="YbTaxgyRkn1RMPvg63sF-2" target="YbTaxgyRkn1RMPvg63sF-123" edge="1">
          <mxGeometry width="50" height="50" relative="1" as="geometry">
            <mxPoint x="80" y="421.42857142857133" as="sourcePoint" />
            <mxPoint x="275" y="310" as="targetPoint" />
          </mxGeometry>
        </mxCell>
        <mxCell id="YbTaxgyRkn1RMPvg63sF-127" value="Add reverb effect" style="ellipse;whiteSpace=wrap;html=1;fillColor=none;" parent="1" vertex="1">
          <mxGeometry x="350" y="300" width="70" height="40" as="geometry" />
        </mxCell>
        <mxCell id="YbTaxgyRkn1RMPvg63sF-128" value="Add pitch change effect" style="ellipse;whiteSpace=wrap;html=1;fillColor=none;" parent="1" vertex="1">
          <mxGeometry x="425" y="320" width="110" height="50" as="geometry" />
        </mxCell>
        <mxCell id="YbTaxgyRkn1RMPvg63sF-129" value="Change playback time" style="ellipse;whiteSpace=wrap;html=1;fillColor=none;" parent="1" vertex="1">
          <mxGeometry x="450" y="375" width="120" height="50" as="geometry" />
        </mxCell>
        <mxCell id="YbTaxgyRkn1RMPvg63sF-131" value="&amp;lt;&amp;lt;extend&amp;gt;&amp;gt;" style="endArrow=classic;html=1;rounded=0;exitX=0.014;exitY=0.8;exitDx=0;exitDy=0;entryX=0.986;entryY=0.275;entryDx=0;entryDy=0;fontStyle=1;exitPerimeter=0;entryPerimeter=0;" parent="1" source="YbTaxgyRkn1RMPvg63sF-127" target="YbTaxgyRkn1RMPvg63sF-123" edge="1">
          <mxGeometry width="50" height="50" relative="1" as="geometry">
            <mxPoint x="410" y="410" as="sourcePoint" />
            <mxPoint x="320" y="380" as="targetPoint" />
          </mxGeometry>
        </mxCell>
        <mxCell id="YbTaxgyRkn1RMPvg63sF-132" value="&amp;lt;&amp;lt;extend&amp;gt;&amp;gt;" style="endArrow=classic;html=1;rounded=0;exitX=0;exitY=0.5;exitDx=0;exitDy=0;entryX=1;entryY=0.5;entryDx=0;entryDy=0;fontStyle=1" parent="1" source="YbTaxgyRkn1RMPvg63sF-128" target="YbTaxgyRkn1RMPvg63sF-123" edge="1">
          <mxGeometry width="50" height="50" relative="1" as="geometry">
            <mxPoint x="420" y="420" as="sourcePoint" />
            <mxPoint x="330" y="390" as="targetPoint" />
          </mxGeometry>
        </mxCell>
        <mxCell id="YbTaxgyRkn1RMPvg63sF-133" value="&amp;lt;&amp;lt;extend&amp;gt;&amp;gt;" style="endArrow=classic;html=1;rounded=0;exitX=0;exitY=0.5;exitDx=0;exitDy=0;entryX=1;entryY=1;entryDx=0;entryDy=0;fontStyle=1" parent="1" source="YbTaxgyRkn1RMPvg63sF-129" target="YbTaxgyRkn1RMPvg63sF-123" edge="1">
          <mxGeometry width="50" height="50" relative="1" as="geometry">
            <mxPoint x="430" y="430" as="sourcePoint" />
            <mxPoint x="340" y="400" as="targetPoint" />
          </mxGeometry>
        </mxCell>
        <mxCell id="YbTaxgyRkn1RMPvg63sF-134" value="Start Karaoke Mode" style="ellipse;whiteSpace=wrap;html=1;fillColor=none;" parent="1" vertex="1">
          <mxGeometry x="395" y="600" width="110" height="60" as="geometry" />
        </mxCell>
        <mxCell id="YbTaxgyRkn1RMPvg63sF-135" value="" style="endArrow=none;html=1;rounded=0;entryX=0.309;entryY=0.017;entryDx=0;entryDy=0;entryPerimeter=0;" parent="1" source="YbTaxgyRkn1RMPvg63sF-2" target="YbTaxgyRkn1RMPvg63sF-134" edge="1">
          <mxGeometry width="50" height="50" relative="1" as="geometry">
            <mxPoint x="80" y="443.125" as="sourcePoint" />
            <mxPoint x="225" y="570" as="targetPoint" />
          </mxGeometry>
        </mxCell>
        <mxCell id="YbTaxgyRkn1RMPvg63sF-137" value="Play Music" style="ellipse;whiteSpace=wrap;html=1;fillColor=none;" parent="1" vertex="1">
          <mxGeometry x="600" y="630" width="80" height="40" as="geometry" />
        </mxCell>
        <mxCell id="YbTaxgyRkn1RMPvg63sF-138" value="Show lyrics" style="ellipse;whiteSpace=wrap;html=1;fillColor=none;" parent="1" vertex="1">
          <mxGeometry x="640" y="680" width="90" height="40" as="geometry" />
        </mxCell>
        <mxCell id="YbTaxgyRkn1RMPvg63sF-139" value="&amp;lt;&amp;lt;include&amp;gt;&amp;gt;" style="endArrow=classic;html=1;rounded=0;exitX=1;exitY=0.5;exitDx=0;exitDy=0;entryX=0;entryY=0.5;entryDx=0;entryDy=0;fontStyle=1;" parent="1" source="YbTaxgyRkn1RMPvg63sF-134" target="YbTaxgyRkn1RMPvg63sF-137" edge="1">
          <mxGeometry width="50" height="50" relative="1" as="geometry">
            <mxPoint x="314.73" y="582.1600000000001" as="sourcePoint" />
            <mxPoint x="415.3899999999999" y="741" as="targetPoint" />
          </mxGeometry>
        </mxCell>
        <mxCell id="YbTaxgyRkn1RMPvg63sF-140" value="&amp;lt;&amp;lt;include&amp;gt;&amp;gt;" style="endArrow=classic;html=1;rounded=0;exitX=0.791;exitY=0.967;exitDx=0;exitDy=0;entryX=0;entryY=0.5;entryDx=0;entryDy=0;fontStyle=1;exitPerimeter=0;" parent="1" source="YbTaxgyRkn1RMPvg63sF-134" target="YbTaxgyRkn1RMPvg63sF-138" edge="1">
          <mxGeometry width="50" height="50" relative="1" as="geometry">
            <mxPoint x="324.73" y="592.1600000000001" as="sourcePoint" />
            <mxPoint x="425.3899999999999" y="751" as="targetPoint" />
          </mxGeometry>
        </mxCell>
        <mxCell id="YbTaxgyRkn1RMPvg63sF-141" value="Record Singing" style="ellipse;whiteSpace=wrap;html=1;fillColor=none;" parent="1" vertex="1">
          <mxGeometry x="590" y="730" width="90" height="40" as="geometry" />
        </mxCell>
        <mxCell id="YbTaxgyRkn1RMPvg63sF-142" value="&amp;lt;&amp;lt;include&amp;gt;&amp;gt;" style="endArrow=classic;html=1;rounded=0;exitX=0.582;exitY=1.017;exitDx=0;exitDy=0;entryX=0;entryY=0.5;entryDx=0;entryDy=0;fontStyle=1;exitPerimeter=0;" parent="1" source="YbTaxgyRkn1RMPvg63sF-134" target="YbTaxgyRkn1RMPvg63sF-141" edge="1">
          <mxGeometry width="50" height="50" relative="1" as="geometry">
            <mxPoint x="492.01" y="668.02" as="sourcePoint" />
            <mxPoint x="650" y="710" as="targetPoint" />
          </mxGeometry>
        </mxCell>
        <mxCell id="YbTaxgyRkn1RMPvg63sF-143" value="Explicit Toggle" style="ellipse;whiteSpace=wrap;html=1;fillColor=none;" parent="1" vertex="1">
          <mxGeometry x="690" y="570" width="90" height="40" as="geometry" />
        </mxCell>
        <mxCell id="YbTaxgyRkn1RMPvg63sF-144" value="&amp;lt;&amp;lt;include&amp;gt;&amp;gt;" style="endArrow=classic;html=1;rounded=0;entryX=0;entryY=0.5;entryDx=0;entryDy=0;exitX=1.025;exitY=0.7;exitDx=0;exitDy=0;fontStyle=1;endFill=1;exitPerimeter=0;" parent="1" source="YbTaxgyRkn1RMPvg63sF-75" target="YbTaxgyRkn1RMPvg63sF-143" edge="1">
          <mxGeometry width="50" height="50" relative="1" as="geometry">
            <mxPoint x="632" y="603" as="sourcePoint" />
            <mxPoint x="737.04" y="651" as="targetPoint" />
          </mxGeometry>
        </mxCell>
        <mxCell id="YbTaxgyRkn1RMPvg63sF-147" value="&lt;font style=&quot;font-size: 26px&quot;&gt;&lt;b&gt;Use Case Diagram&lt;br&gt;&lt;/b&gt;&lt;/font&gt;" style="rounded=1;whiteSpace=wrap;html=1;fillColor=none;" parent="1" vertex="1">
          <mxGeometry x="690" y="60" width="250" height="60" as="geometry" />
        </mxCell>
        <mxCell id="YbTaxgyRkn1RMPvg63sF-148" value="custom" style="ellipse;whiteSpace=wrap;html=1;fillColor=none;" parent="1" vertex="1">
          <mxGeometry x="560" y="480" width="60" height="30" as="geometry" />
        </mxCell>
        <mxCell id="YbTaxgyRkn1RMPvg63sF-150" value="" style="endArrow=none;html=1;rounded=0;fontSize=26;" parent="1" edge="1">
          <mxGeometry width="50" height="50" relative="1" as="geometry">
            <mxPoint x="520" y="490" as="sourcePoint" />
            <mxPoint x="520" y="460" as="targetPoint" />
          </mxGeometry>
        </mxCell>
        <mxCell id="YbTaxgyRkn1RMPvg63sF-151" value="" style="endArrow=none;html=1;rounded=0;fontSize=26;entryX=0;entryY=0.5;entryDx=0;entryDy=0;" parent="1" target="YbTaxgyRkn1RMPvg63sF-148" edge="1">
          <mxGeometry width="50" height="50" relative="1" as="geometry">
            <mxPoint x="520" y="490" as="sourcePoint" />
            <mxPoint x="580" y="480" as="targetPoint" />
          </mxGeometry>
        </mxCell>
        <mxCell id="YbTaxgyRkn1RMPvg63sF-152" value="" style="endArrow=none;html=1;rounded=0;fontSize=26;entryX=0;entryY=0.5;entryDx=0;entryDy=0;" parent="1" target="YbTaxgyRkn1RMPvg63sF-71" edge="1">
          <mxGeometry width="50" height="50" relative="1" as="geometry">
            <mxPoint x="520" y="460" as="sourcePoint" />
            <mxPoint x="500" y="480" as="targetPoint" />
          </mxGeometry>
        </mxCell>
        <mxCell id="YbTaxgyRkn1RMPvg63sF-153" value="" style="endArrow=classic;html=1;rounded=0;fontSize=26;entryX=1;entryY=0.5;entryDx=0;entryDy=0;" parent="1" target="YbTaxgyRkn1RMPvg63sF-54" edge="1">
          <mxGeometry width="50" height="50" relative="1" as="geometry">
            <mxPoint x="520" y="480" as="sourcePoint" />
            <mxPoint x="870" y="580" as="targetPoint" />
          </mxGeometry>
        </mxCell>
        <mxCell id="YbTaxgyRkn1RMPvg63sF-170" value="&lt;div&gt;Premium&lt;/div&gt;&lt;div&gt;&lt;br&gt;&lt;/div&gt;" style="shape=umlActor;verticalLabelPosition=bottom;verticalAlign=top;html=1;outlineConnect=0;fillColor=none;" parent="1" vertex="1">
          <mxGeometry x="10" y="250" width="30" height="60" as="geometry" />
        </mxCell>
        <mxCell id="YbTaxgyRkn1RMPvg63sF-173" value="Free" style="shape=umlActor;verticalLabelPosition=bottom;verticalAlign=top;html=1;outlineConnect=0;fillColor=none;" parent="1" vertex="1">
          <mxGeometry x="60" y="250" width="30" height="60" as="geometry" />
        </mxCell>
        <mxCell id="YbTaxgyRkn1RMPvg63sF-175" value="" style="endArrow=none;html=1;rounded=0;fontSize=20;entryX=0;entryY=1;entryDx=0;entryDy=0;" parent="1" target="YbTaxgyRkn1RMPvg63sF-176" edge="1">
          <mxGeometry width="50" height="50" relative="1" as="geometry">
            <mxPoint x="80" y="240" as="sourcePoint" />
            <mxPoint x="150" y="150" as="targetPoint" />
          </mxGeometry>
        </mxCell>
        <mxCell id="YbTaxgyRkn1RMPvg63sF-176" value="Ads" style="ellipse;whiteSpace=wrap;html=1;fillColor=none;" parent="1" vertex="1">
          <mxGeometry x="130" y="50" width="70" height="40" as="geometry" />
        </mxCell>
        <mxCell id="YbTaxgyRkn1RMPvg63sF-177" value="Upgrade Tier" style="ellipse;whiteSpace=wrap;html=1;fillColor=none;" parent="1" vertex="1">
          <mxGeometry x="137.5" y="100" width="70" height="40" as="geometry" />
        </mxCell>
        <mxCell id="YbTaxgyRkn1RMPvg63sF-178" value="" style="endArrow=none;html=1;rounded=0;fontSize=20;entryX=0;entryY=1;entryDx=0;entryDy=0;" parent="1" source="YbTaxgyRkn1RMPvg63sF-173" target="YbTaxgyRkn1RMPvg63sF-177" edge="1">
          <mxGeometry width="50" height="50" relative="1" as="geometry">
            <mxPoint x="540" y="440" as="sourcePoint" />
            <mxPoint x="590" y="390" as="targetPoint" />
          </mxGeometry>
        </mxCell>
        <mxCell id="YbTaxgyRkn1RMPvg63sF-189" value="" style="edgeStyle=orthogonalEdgeStyle;rounded=0;orthogonalLoop=1;jettySize=auto;html=1;labelBackgroundColor=default;fontSize=12;endArrow=classic;endFill=1;" parent="1" source="YbTaxgyRkn1RMPvg63sF-188" target="YbTaxgyRkn1RMPvg63sF-180" edge="1">
          <mxGeometry relative="1" as="geometry" />
        </mxCell>
        <mxCell id="YbTaxgyRkn1RMPvg63sF-191" value="" style="edgeStyle=orthogonalEdgeStyle;rounded=0;orthogonalLoop=1;jettySize=auto;html=1;labelBackgroundColor=default;fontSize=12;endArrow=classic;endFill=1;" parent="1" source="YbTaxgyRkn1RMPvg63sF-190" target="YbTaxgyRkn1RMPvg63sF-180" edge="1">
          <mxGeometry relative="1" as="geometry" />
        </mxCell>
        <mxCell id="YbTaxgyRkn1RMPvg63sF-180" value="Payment" style="ellipse;whiteSpace=wrap;html=1;fillColor=none;" parent="1" vertex="1">
          <mxGeometry x="300" y="70" width="70" height="40" as="geometry" />
        </mxCell>
        <object label="&amp;lt;&amp;lt;include&amp;gt;&amp;gt;" id="YbTaxgyRkn1RMPvg63sF-182">
          <mxCell style="endArrow=classic;html=1;rounded=0;exitX=1;exitY=0.5;exitDx=0;exitDy=0;entryX=0;entryY=1;entryDx=0;entryDy=0;fontStyle=1;" parent="1" source="YbTaxgyRkn1RMPvg63sF-177" target="YbTaxgyRkn1RMPvg63sF-180" edge="1">
            <mxGeometry width="50" height="50" relative="1" as="geometry">
              <mxPoint x="239.74873734151856" y="185.8578643762753" as="sourcePoint" />
              <mxPoint x="399.7600000000002" y="95.7600000000001" as="targetPoint" />
            </mxGeometry>
          </mxCell>
        </object>
        <mxCell id="YbTaxgyRkn1RMPvg63sF-188" value="Card" style="ellipse;whiteSpace=wrap;html=1;fillColor=none;" parent="1" vertex="1">
          <mxGeometry x="410" y="50" width="70" height="30" as="geometry" />
        </mxCell>
        <mxCell id="YbTaxgyRkn1RMPvg63sF-190" value="Bkash" style="ellipse;whiteSpace=wrap;html=1;fillColor=none;" parent="1" vertex="1">
          <mxGeometry x="410" y="100" width="70" height="30" as="geometry" />
        </mxCell>
      </root>
    </mxGraphModel>
  </diagram>
</mxfile>
